<?xml version="1.0" encoding="UTF-8" standalone="no"?><!-- Generator: Gravit.io --><svg xmlns="http://www.w3.org/2000/svg" xmlns:xlink="http://www.w3.org/1999/xlink" style="isolation:isolate" viewBox="0 0 800 800" width="800pt" height="800pt"><defs><clipPath id="_clipPath_tYtw1i0yHnbY23s4SQqKo1edVSmtl26h"><rect width="800" height="800"/></clipPath></defs><g clip-path="url(#_clipPath_tYtw1i0yHnbY23s4SQqKo1edVSmtl26h)"><path d=" M 651.628 260.705 L 526.763 296.066 L 526.763 417.132 C 526.763 431.045 517.446 443.238 504.036 446.889 L 271.642 510.203 L 271.642 643.734 L 628.313 546.571 C 642.079 542.814 651.649 530.307 651.649 516.037 L 651.649 260.705 L 651.628 260.705 Z " fill="rgb(255,255,255)"/><path d=" M 294.39 361.856 L 526.784 296.045 L 526.784 161.171 L 169.526 262.321 C 156.074 266.119 146.799 278.396 146.799 292.372 L 146.799 544.157 L 271.663 510.14 L 271.663 391.907 C 271.642 377.952 280.938 365.654 294.39 361.856 Z " fill="rgb(255,255,255)"/><g><path d=" M 526.784 161.171 L 526.784 67.323 C 526.784 46.757 507.121 31.878 487.331 37.482 L 44.725 162.807 C 31.252 166.627 21.934 178.924 21.934 192.943 L 21.934 537.61 C 21.934 558.05 41.367 572.908 61.093 567.535 L 146.778 544.199 L 146.778 292.456 C 146.778 278.438 156.074 266.14 169.568 262.321 L 526.784 161.171 Z " fill="rgb(29,51,221)"/><path d=" M 146.799 544.178 L 146.799 637.123 C 146.799 657.563 166.231 672.421 185.958 667.049 L 271.642 643.713 L 271.642 510.182 L 146.799 544.178 Z " fill="rgb(166,207,213)"/><path d=" M 651.628 260.705 L 651.628 166.837 C 651.628 146.271 631.964 131.392 612.175 136.995 L 526.784 161.171 L 526.784 296.045 L 651.628 260.705 Z " fill="rgb(166,207,213)"/><g opacity="0.5"><path d=" M 294.39 361.856 L 526.784 296.045 L 526.784 161.171 L 169.526 262.321 C 156.074 266.119 146.799 278.396 146.799 292.372 L 146.799 544.157 L 271.663 510.14 L 271.663 391.907 C 271.642 377.952 280.938 365.654 294.39 361.856 Z " fill="rgb(166,207,213)"/></g><path d=" M 651.628 260.705 L 651.628 516.267 C 651.628 530.391 642.163 542.772 628.543 546.487 L 271.642 643.713 L 271.642 736.658 C 271.642 757.098 291.074 771.956 310.801 766.583 L 753.387 646.021 C 767.027 642.307 776.471 629.925 776.471 615.802 L 776.471 266.35 C 776.471 245.784 756.807 230.906 737.018 236.509 L 651.628 260.705 Z " fill="rgb(10,135,84)"/><g opacity="0.5"><path d=" M 651.628 260.705 L 526.763 296.066 L 526.763 417.132 C 526.763 431.045 517.446 443.238 504.036 446.889 L 271.642 510.203 L 271.642 643.734 L 628.313 546.571 C 642.079 542.814 651.649 530.307 651.649 516.037 L 651.649 260.705 L 651.628 260.705 Z " fill="rgb(10,135,84)"/></g><path d=" M 271.642 510.182 L 503.7 446.973 C 517.341 443.259 526.784 430.877 526.784 416.754 L 526.784 296.066 L 294.432 361.856 C 280.959 365.675 271.642 377.973 271.642 391.991 L 271.642 510.182 L 271.642 510.182 Z " fill="rgb(10,135,84)"/><path d=" M 761.613 231.64 C 749.609 222.553 734.395 219.699 719.915 223.812 L 660.483 240.643 L 660.483 240.643 L 660.483 173.951 C 660.483 158.883 653.6 145.033 641.575 135.967 C 629.572 126.88 614.378 124.026 599.877 128.139 L 540.446 144.97 L 540.446 144.97 L 540.446 78.278 C 540.446 63.21 533.563 49.38 521.538 40.294 C 509.534 31.207 494.32 28.353 479.84 32.466 L 54.378 152.923 C 33.833 158.736 19.5 177.707 19.5 199.05 L 19.5 530.391 C 19.5 545.354 26.32 559.162 38.219 568.228 C 46.655 574.67 56.728 578.028 67.011 578.028 C 71.208 578.028 343.895 504.264 343.895 504.264 L 343.916 504.327 L 505.484 460.32 C 526.092 454.717 540.467 435.872 540.467 414.529 L 540.467 414.173 L 540.467 347.627 L 504.833 357.7 L 504.833 414.173 C 504.833 419.692 501.098 424.581 495.768 426.03 L 295.188 480.676 L 295.188 390.375 C 295.188 384.898 298.86 380.05 304.127 378.56 L 729.61 258.082 C 734.605 256.676 738.34 258.712 740.103 260.055 C 741.887 261.398 744.866 264.441 744.866 269.624 L 744.866 605.54 C 744.866 611.059 741.131 615.949 735.801 617.397 L 310.318 733.3 C 305.345 734.664 301.651 732.608 299.888 731.265 C 298.126 729.922 295.167 726.9 295.167 721.737 L 295.167 681.97 L 259.533 691.686 L 259.533 721.737 C 259.533 736.7 266.353 750.509 278.252 759.574 C 286.688 766.017 296.761 769.375 307.044 769.375 C 311.242 769.375 315.502 768.808 319.678 767.675 L 745.181 651.792 C 765.978 646.126 780.5 627.113 780.5 605.561 L 780.5 269.624 C 780.5 254.556 773.617 240.727 761.613 231.64 Z  M 174.395 248.596 L 174.332 248.617 C 153.829 254.43 139.517 273.359 139.517 294.66 L 139.517 294.723 L 139.517 523.109 L 70.264 541.975 C 65.291 543.339 61.597 541.282 59.834 539.939 C 58.071 538.596 55.113 535.574 55.113 530.412 L 55.113 199.05 C 55.113 193.572 58.785 188.704 64.052 187.214 L 489.535 66.735 C 490.731 66.4 491.843 66.253 492.893 66.253 C 496.208 66.253 498.685 67.68 500.049 68.708 C 501.833 70.051 504.812 73.073 504.812 78.278 L 504.812 155.043 L 195.044 242.762 L 174.395 248.596 C 174.395 248.596 174.395 248.596 174.395 248.596 Z  M 624.85 250.716 L 582.648 262.657 L 540.446 274.598 L 540.446 218.02 L 504.812 228.094 L 504.812 284.692 L 294.369 344.27 C 273.866 350.083 259.533 369.012 259.533 390.333 L 259.533 390.375 L 259.533 490.392 L 217.331 501.892 L 175.129 513.392 L 175.129 294.723 C 175.129 289.246 178.802 284.377 184.069 282.887 L 609.593 162.409 C 614.588 161.003 618.323 163.038 620.107 164.381 C 621.891 165.724 624.871 168.746 624.871 173.951 L 624.871 250.716 L 624.85 250.716 Z " fill="none"/><path d=" M 139.517 595.971 L 139.517 626.064 C 139.517 641.027 146.337 654.835 158.236 663.901 C 166.672 670.344 176.745 673.701 187.028 673.701 C 191.225 673.701 195.485 673.135 199.661 672.001 L 259.533 655.696 L 259.533 655.717 L 295.167 646 L 295.167 645.979 L 335.648 634.962 L 625.144 556.098 C 645.94 550.432 660.462 531.419 660.462 509.867 L 660.462 509.636 L 660.462 313.694 L 624.829 323.767 L 624.829 509.615 C 624.829 515.281 621.01 520.276 615.532 521.766 L 295.167 609.045 L 295.167 553.496 L 259.533 563.212 L 259.533 618.74 L 190.281 637.606 C 185.307 638.97 181.614 636.914 179.851 635.57 C 178.088 634.227 175.129 631.206 175.129 626.043 L 175.129 586.233 L 139.517 595.971 Z " fill="none"/></g></g></svg>